<svg width="33" height="33" viewBox="0 0 33 33" fill="none" xmlns="http://www.w3.org/2000/svg">
<path d="M16.5 0C7.4051 0 0 7.4051 0 16.5C0 25.5948 7.40505 33 16.5 33C25.5949 33 33 25.5948 33 16.5C33 7.4051 25.5949 0 16.5 0ZM16.5 3C23.9736 3 30 9.02645 30 16.5C30 23.9735 23.9736 30 16.5 30C9.0264 30 3 23.9735 3 16.5C3 9.02645 9.0264 3 16.5 3ZM16.5 5.49999C15.6716 5.49999 15 6.17159 15 6.99999V16.5C15 16.9142 15.166 17.2911 15.4375 17.5625L21.4531 23.5781C22.0389 24.1639 22.9923 24.1639 23.5781 23.5781C24.1639 22.9924 24.1639 22.0389 23.5781 21.4531L18 15.875V6.99999C18 6.17159 17.3284 5.49999 16.5 5.49999Z" fill="#A7A6A6"/>
</svg>
