<svg width="28" height="32" viewBox="0 0 28 32" fill="none" xmlns="http://www.w3.org/2000/svg">
<path fill-rule="evenodd" clip-rule="evenodd" d="M6.77625 16.1856C6.77625 11.6766 10.0504 8.05664 14.0021 8.05664C17.9537 8.05664 21.2279 11.7401 21.2279 16.1856C21.2279 20.6312 18.0101 24.3147 14.0021 24.3147C9.99397 24.3147 6.77625 20.6947 6.77625 16.1856ZM9.373 16.1856C9.373 19.0434 11.4617 21.3933 14.0021 21.3933C16.5423 21.3933 18.6311 19.0434 18.6311 16.1856C18.6311 13.3278 16.5423 10.978 14.0021 10.978C11.4617 10.978 9.373 13.3278 9.373 16.1856Z" fill="#F9F4EA"/>
<path d="M21.5101 9.70901C22.4143 9.70901 23.1471 8.88442 23.1471 7.86726C23.1471 6.8501 22.4143 6.02551 21.5101 6.02551C20.6059 6.02551 19.8729 6.8501 19.8729 7.86726C19.8729 8.88442 20.6059 9.70901 21.5101 9.70901Z" fill="#F9F4EA"/>
<path fill-rule="evenodd" clip-rule="evenodd" d="M19.8146 0.5C22.1854 0.5 24.2742 1.38911 25.742 3.10383C27.2096 4.75504 28 7.04134 28 9.70866V22.7914C28 25.5222 27.2096 27.8719 25.6854 29.5232C24.2178 31.1108 22.1854 32 19.758 32H8.24194C5.92742 32 3.89516 31.1745 2.37096 29.5232C0.79032 27.8085 0 25.4586 0 22.7277V9.70866C0 4.18348 3.2742 0.5 8.18548 0.5H19.8146ZM23.8812 27.4273C24.8972 26.3478 25.5182 24.7602 25.5182 22.7914V9.70866C25.5182 7.86693 24.9538 6.27922 23.994 5.13608C22.978 3.99292 21.5666 3.42135 19.873 3.42135H8.24404C6.55048 3.42135 5.08274 3.99292 4.12306 5.07256C3.10694 6.21572 2.59888 7.80341 2.59888 9.70866V22.7277C2.59888 24.6965 3.10694 26.2843 4.12306 27.4273C5.1392 28.5071 6.55048 29.0786 8.24404 29.0786H19.7602C21.4538 29.0786 22.865 28.5071 23.8812 27.4273Z" fill="#F9F4EA"/>
</svg>
