<svg width="212" height="84" viewBox="0 0 212 84" fill="none" xmlns="http://www.w3.org/2000/svg">
<path d="M37.4172 25.2C37.4172 27.576 38.6412 28.8 41.0172 28.8H42.8892C45.2652 28.8 46.4892 27.504 46.4892 25.2V23.832C46.4892 21.456 45.2652 20.232 42.8892 20.232H41.0172C38.7132 20.232 37.4172 21.528 37.4172 23.832V25.2ZM46.0572 39.312C46.0572 36.792 44.2572 34.92 41.7372 34.92C39.2172 34.92 37.4172 36.792 37.4172 39.312V67.608C37.4172 70.128 39.2172 72 41.7372 72C44.2572 72 46.0572 70.128 46.0572 67.608V39.312ZM82.1388 24.408C78.6108 22.608 74.5068 21.6 70.2588 21.6C55.9308 21.6 44.3388 32.904 44.3388 46.8C44.3388 62.784 57.2268 71.928 70.2588 71.928C74.3628 71.928 78.4668 70.992 82.2108 69.12C84.5868 67.968 85.2348 65.088 83.3628 62.64C81.9948 60.912 79.9068 60.696 77.8908 61.632C75.5148 62.784 72.8508 63.288 70.2588 63.288C61.5468 63.288 52.9788 57.384 52.9788 46.8C52.9788 37.728 60.6828 30.24 70.2588 30.24C72.9948 30.24 75.5868 30.816 77.8908 31.896C79.9068 32.904 81.9948 32.76 83.2908 31.032C85.0908 28.8 84.6588 25.704 82.1388 24.408ZM116.047 53.496C116.047 42.84 107.551 34.2 96.8234 34.2C86.0954 34.2 77.5994 42.84 77.5994 53.496C77.5994 64.152 86.0954 72.72 96.8234 72.72C107.551 72.72 116.047 64.152 116.047 53.496ZM107.407 53.496C107.407 59.472 102.655 64.08 96.8234 64.08C90.9914 64.08 86.2394 59.472 86.2394 53.496C86.2394 47.448 90.9914 42.84 96.8234 42.84C102.655 42.84 107.407 47.448 107.407 53.496ZM149.457 53.496C149.457 42.84 140.961 34.2 130.233 34.2C119.505 34.2 111.009 42.84 111.009 53.496C111.009 64.152 119.505 72.72 130.233 72.72C140.961 72.72 149.457 64.152 149.457 53.496ZM140.817 53.496C140.817 59.472 136.065 64.08 130.233 64.08C124.401 64.08 119.649 59.472 119.649 53.496C119.649 47.448 124.401 42.84 130.233 42.84C136.065 42.84 140.817 47.448 140.817 53.496ZM166.739 52.056C166.451 51.696 166.451 51.336 166.811 51.048L176.531 42.624C178.691 40.752 178.763 38.088 176.891 36.216C175.163 34.488 172.787 34.416 170.987 36L156.443 48.744C156.011 49.104 155.579 48.96 155.579 48.312V23.112C155.579 20.592 153.779 18.72 151.259 18.72C148.739 18.72 146.939 20.592 146.939 23.112V67.608C146.939 70.128 148.739 72 151.259 72C153.779 72 155.579 70.128 155.579 67.608V61.488C155.579 61.056 155.723 60.84 156.011 60.552L159.179 57.672C159.539 57.384 159.899 57.384 160.259 57.744L172.067 70.488C173.579 72.144 176.099 72.432 177.899 70.92L178.187 70.704C180.059 69.12 180.131 66.456 178.259 64.44L166.739 52.056Z" fill="#D3C8C4"/>
</svg>
