<svg width="27" height="29" viewBox="0 0 27 29" fill="none" xmlns="http://www.w3.org/2000/svg">
<path d="M26.5514 26.2551L19.9297 19.1344C23.259 14.4801 22.9261 7.7572 18.9309 3.50069C16.7483 1.15364 13.9369 0 11.0885 0C8.24008 0 5.42865 1.15364 3.24609 3.50069C-1.08203 8.15501 -1.08203 15.7133 3.24609 20.3676C5.42865 22.7147 8.24008 23.8683 11.0885 23.8683C13.456 23.8683 15.8235 23.0727 17.7841 21.4417L24.4428 28.5226C24.7387 28.8409 25.1086 29 25.5156 29C25.8855 29 26.2924 28.8409 26.5883 28.5226C27.1432 27.9259 27.1432 26.8916 26.5514 26.2551ZM11.1255 20.6461C8.94293 20.6461 6.94534 19.7311 5.39165 18.1001C2.24729 14.7188 2.24729 9.1893 5.39165 5.76818C6.90835 4.13717 8.94293 3.22222 11.1255 3.22222C13.308 3.22222 15.3056 4.13717 16.8593 5.76818C18.413 7.39918 19.2268 9.58711 19.2268 11.9342C19.2268 14.2812 18.376 16.4294 16.8593 18.1001C15.3426 19.7709 13.2711 20.6461 11.1255 20.6461Z" fill="#ADADAD"/>
</svg>
